<svg width="272" height="270" viewBox="0 0 272 270" fill="none" xmlns="http://www.w3.org/2000/svg">
<path d="M82.7375 79.7187L0 269.624H55.8478L139.62 79.7187C191.331 -26.0219 233.4 147.534 224.426 107.827C191.331 -38.6058 132.38 -23.7337 82.7375 79.7187Z" fill="#1FE4C1"/>
<path d="M131.346 230.178L36.1982 64.2965C40.6799 42.9416 52.1252 2.29122 62.0537 10.5281C54.6073 6.86725 58.9511 44.8483 62.0537 64.2965L136.518 194.713L177.886 103.193H272L253.384 122.641H183.057L131.346 230.178Z" fill="#0F4FCD"/>
<path d="M157.201 72.3628C167.543 92.9549 230.631 233.668 177.885 233.668H71.3609L55.8477 269.132H177.885C293.718 262.268 195.467 142.147 157.201 72.3628Z" fill="#1FE4C1"/>
</svg>
